<svg width="27" height="27" viewBox="0 0 27 27" fill="none" xmlns="http://www.w3.org/2000/svg">
<circle cx="13.5" cy="13.5" r="13.5" fill="#E13535"/>
<path d="M18.3755 14.5494C18.3755 15.5674 18.3795 16.5855 18.3749 17.6036C18.3684 19.0029 17.378 19.9781 15.9277 19.9901C14.3106 20.0033 12.6934 20.0033 11.0763 19.9901C9.62598 19.9781 8.63303 19.0035 8.62977 17.6036C8.62456 15.5044 8.62847 13.4059 8.62847 11.3067C8.62847 11.233 8.62782 11.1593 8.63499 11.0868C8.66887 10.7536 8.89951 10.5551 9.24222 10.5608C9.56865 10.5665 9.81363 10.7914 9.82079 11.1171C9.83057 11.5474 9.8234 11.9777 9.8234 12.408C9.8234 14.1184 9.82275 15.8295 9.8234 17.54C9.8234 18.3558 10.3095 18.8214 11.1571 18.822C12.7312 18.8227 14.3047 18.8233 15.8788 18.822C16.6848 18.8214 17.1793 18.3483 17.18 17.5721C17.1819 15.4522 17.18 13.3322 17.1813 11.2122C17.1813 10.7718 17.4484 10.5211 17.8595 10.5646C18.1899 10.5992 18.3723 10.8185 18.3742 11.2135C18.3788 12.3261 18.3755 13.4387 18.3762 14.5506L18.3755 14.5494Z" fill="#FCFDFF"/>
<path d="M11.06 8.76086C11.06 8.40302 11.0581 8.05967 11.06 7.71632C11.0633 7.23436 11.2744 7.00882 11.7611 7.00567C12.9215 6.99811 14.0825 6.99811 15.2429 7.00567C15.7296 7.00882 15.9388 7.23436 15.9427 7.71758C15.9453 8.04266 15.9472 8.36774 15.9512 8.69219C15.9512 8.71046 15.9674 8.72873 15.9942 8.7848C16.5805 8.7848 17.1852 8.78354 17.7898 8.7848C18.0283 8.78543 18.2687 8.77661 18.5046 8.80181C18.7893 8.83269 19.0088 9.10485 18.9997 9.37638C18.9906 9.65421 18.7619 9.90117 18.4785 9.93645C18.4251 9.94338 18.3703 9.9396 18.3156 9.9396C15.1048 9.9396 11.894 9.94023 8.6832 9.93897C8.16197 9.93897 7.85183 9.51435 8.0714 9.10296C8.19976 8.86356 8.41933 8.77976 8.69232 8.78228C9.38621 8.78795 10.0808 8.7848 10.7753 8.78291C10.8594 8.78291 10.9434 8.76968 11.0587 8.7596L11.06 8.76086ZM12.2967 8.7659H14.7022V8.19386H12.2967V8.7659Z" fill="#FCFDFF"/>
<path d="M12.885 14.3793C12.885 15.0401 12.887 15.7016 12.8843 16.3625C12.8824 16.7745 12.642 17.0391 12.2804 17.0372C11.922 17.036 11.6855 16.7739 11.6849 16.3568C11.6816 15.0345 11.6809 13.7121 11.6849 12.3897C11.6862 11.9815 11.9064 11.7458 12.268 11.7402C12.6459 11.7345 12.8817 11.9808 12.8837 12.3954C12.887 13.0562 12.8843 13.7177 12.8843 14.3786L12.885 14.3793Z" fill="#FCFDFF"/>
<path d="M14.119 14.3799C14.119 13.719 14.1164 13.0575 14.1197 12.3966C14.1216 11.9821 14.3575 11.7357 14.7347 11.7408C15.0963 11.7458 15.3172 11.9821 15.3185 12.3897C15.3224 13.7121 15.3224 15.0345 15.3185 16.3568C15.3172 16.7739 15.0813 17.036 14.7237 17.0379C14.3516 17.0398 14.1197 16.7714 14.1184 16.3323C14.1164 15.6815 14.1184 15.0307 14.1184 14.3805L14.119 14.3799Z" fill="#FCFDFF"/>
</svg>
