<svg width="34" height="20" viewBox="0 0 34 20" fill="none" xmlns="http://www.w3.org/2000/svg">
<path d="M13.313 16.6345C13.32 14.7886 14.8807 13.2412 16.7062 13.2699C18.5641 13.2993 20.0656 14.8301 20.0533 16.6811C20.0409 18.5411 18.5331 20.0071 16.6399 19.9998C14.7991 19.9927 13.306 18.4824 13.313 16.6345Z" fill="white"/>
<path d="M16.7024 4.49963e-06C18.5533 0.00315534 20.0508 1.49632 20.0532 3.34139C20.0555 5.18646 18.5219 6.73053 16.6825 6.73004C14.8431 6.72954 13.3105 5.1906 13.313 3.34222C13.3156 1.47957 14.8192 -0.00298051 16.7024 4.49963e-06Z" fill="white"/>
<path d="M26.6333 3.34305C26.6348 1.4605 28.1111 -0.00347631 30.0043 6.20014e-06C31.8437 0.00348871 33.3625 1.51291 33.3665 3.34139C33.3705 5.16987 31.8238 6.72175 29.9869 6.73087C28.1499 6.73999 26.6318 5.20719 26.6333 3.34305Z" fill="white"/>
<path d="M3.39158 1.36127e-06C5.26917 0.0016597 6.73686 1.48355 6.73305 3.37339C6.72923 5.2095 5.21127 6.73285 3.38627 6.73119C1.55066 6.72987 0.00598904 5.18761 1.73982e-05 3.34984C-0.00595425 1.51207 1.52611 -0.00165698 3.39158 1.36127e-06Z" fill="white"/>
<path d="M3.3883 19.9996C1.52614 20.0012 -0.0105616 18.4807 5.46786e-05 16.6459C0.0108368 14.805 1.556 13.2667 3.39062 13.269C5.23188 13.2722 6.73673 14.802 6.73309 16.6686C6.7296 18.5276 5.25195 19.9996 3.3883 19.9996Z" fill="white"/>
<path d="M29.9796 19.9998C28.098 19.9998 26.6305 18.522 26.6333 16.6318C26.6361 14.7926 28.1428 13.2745 29.9731 13.2686C31.8034 13.2626 33.3532 14.8039 33.3662 16.6436C33.3791 18.4774 31.8414 20.0013 29.9796 19.9998Z" fill="white"/>
</svg>
